<?xml version="1.0" encoding="UTF-8" standalone="no"?>
<!DOCTYPE svg PUBLIC "-//W3C//DTD SVG 1.1//EN" "http://www.w3.org/Graphics/SVG/1.1/DTD/svg11.dtd">
<svg width="100%" height="100%" viewBox="0 0 400 400" version="1.1" xmlns="http://www.w3.org/2000/svg" xmlns:xlink="http://www.w3.org/1999/xlink" xml:space="preserve" xmlns:serif="http://www.serif.com/" style="fill-rule:evenodd;clip-rule:evenodd;stroke-linejoin:round;stroke-miterlimit:2;">
    <g transform="matrix(1,0,0,1,-4776.98,-2215.46)">
        <g id="Blue" transform="matrix(0.991867,0,0,0.991867,4286.11,2215.46)">
            <rect x="494.892" y="0" width="403.28" height="403.28" style="fill:none;"/>
            <clipPath id="_clip1">
                <rect x="494.892" y="0" width="403.28" height="403.28"/>
            </clipPath>
            <g clip-path="url(#_clip1)">
                <g transform="matrix(1.00032,0,0,1.00032,494.827,-0.065533)">
                    <path d="M403.23,88.693C403.23,39.742 363.488,0 314.537,0L88.773,0C39.822,0 0.08,39.742 0.08,88.693L0.08,314.457C0.08,363.408 39.822,403.15 88.773,403.15L314.537,403.15C363.488,403.15 403.23,363.408 403.23,314.457L403.23,88.693Z" style="fill:rgb(50,0,229);"/>
                    <clipPath id="_clip2">
                        <path d="M403.23,88.693C403.23,39.742 363.488,0 314.537,0L88.773,0C39.822,0 0.08,39.742 0.08,88.693L0.08,314.457C0.08,363.408 39.822,403.15 88.773,403.15L314.537,403.15C363.488,403.15 403.23,363.408 403.23,314.457L403.23,88.693Z"/>
                    </clipPath>
                    <g clip-path="url(#_clip2)">
                        <rect x="0" y="0.13" width="403.15" height="403.15" style="fill:url(#_Radial3);"/>
                    </g>
                </g>
                <g transform="matrix(313.837,0,0,313.837,583.076,322.624)">
                    <path d="M0.438,-0L0.06,-0L0.06,-0.771L0.6,-0.771L0.6,-0.627L0.539,-0.52C0.639,-0.48 0.708,-0.384 0.708,-0.27C0.708,-0.121 0.587,-0 0.438,-0ZM0.214,-0.617L0.214,-0.54L0.373,-0.54L0.417,-0.617L0.214,-0.617ZM0.285,-0.385L0.214,-0.385L0.214,-0.26L0.285,-0.385ZM0.461,-0.383L0.331,-0.154L0.438,-0.154C0.502,-0.154 0.554,-0.206 0.554,-0.27C0.554,-0.326 0.514,-0.372 0.461,-0.383Z" style="fill:white;fill-opacity:0.9;fill-rule:nonzero;"/>
                </g>
            </g>
        </g>
    </g>
    <defs>
        <radialGradient id="_Radial3" cx="0" cy="0" r="1" gradientUnits="userSpaceOnUse" gradientTransform="matrix(201.57,0,0,-201.57,201.57,203.725)"><stop offset="0" style="stop-color:rgb(29,29,27);stop-opacity:0.2"/><stop offset="1" style="stop-color:rgb(194,194,193);stop-opacity:0.2"/></radialGradient>
    </defs>
</svg>
